PathFileType	4	(X/Y/Z)	C:/Users/beibeiliu/ov580/test_trc\sequence.21_training_dense_right.trc
DataRate	CameraRate	NumFrames	NumMarkers	Units	OrigDataRate	OrigDataStartFrame	OrigNumFrames
120	120	14	19	mm	120	249	397
Frame#	Time	ThumbCMC			ThumbMCP			ThumbIP			ThumbTip			IndexMCP			IndexPIP			IndexTip			MiddleMCP			MiddlePIP			MiddleTip			RingMCP			RingPIP			RingTip			PinkyMCP			PinkyPIP			PinkyTip			BackHand1			BackHand2			BackHand3	
		X0	Y0	Z0	X1	Y1	Z1	X2	Y2	Z2	X3	Y3	Z3	X4	Y4	Z4	X5	Y5	Z5	X6	Y6	Z6	X7	Y7	Z7	X8	Y8	Z8	X9	Y9	Z9	X10	Y10	Z10	X11	Y11	Z11	X12	Y12	Z12	X13	Y13	Z13	X14	Y14	Z14	X15	Y15	Z15	X16	Y16	Z16	X17	Y17	Z17	X18	Y18	Z18	
248	2.06667	203.055	26.0836	22.5314	181.909	19.1415	-3.75696	179.525	0.41726	-24.7225	179.336	-23.0009	-34.3708	215.533	20.898	-41.4865	210.673	19.1316	-61.2993	207.766	20.4889	-82.7565	220.117	-6.09237	-47.3512	215.901	-5.39289	-68.3611	213.033	-9.98591	-91.6237	219.317	-22.9806	-34.8518	216.327	-27.7096	-54.1886	212.206	-34.7426	-77.5931	216.731	-43.6762	-17.569	212.808	-51.061	-33.0353	213.585	-65.1169	-49.4794	232.886	-16.3091	8.89995	238.718	-14.902	33.9829	233.093	10.7846	14.4761	
249	2.075	204.842	24.3884	25.0454	183.867	18.4991	-6.1755	180.107	2.74224	-22.5924	180.18	-22.5949	-34.3401	216.96	20.0162	-42.2167	211.864	23.3369	-61.1905	209.222	22.5675	-81.2452	220.383	-5.03153	-47.1978	216.85	-3.4055	-66.3714	213.421	-9.51132	-92.8963	218.686	-22.865	-38.0056	215.155	-28.5264	-56.7391	211.787	-32.1634	-77.5355	213.998	-40.5885	-20.8734	210.267	-52.5512	-31.3319	210.538	-61.1452	-52.3281	230.951	-14.7725	8.1682	235.374	-14.3037	35.7756	234.911	7.05848	17.2277	
250	2.08333	203.904	25.8975	21.0447	180.982	20.9813	-4.10298	177.724	4.25525	-25.7541	180.291	-19.0147	-33.1211	217.569	23.9942	-41.8747	213.905	21.8271	-58.6112	210.715	26.4189	-79.083	220.106	-2.56405	-43.1225	217.269	-5.21334	-67.2042	213.769	-7.40652	-91.2251	217.853	-24.5916	-32.3803	215.524	-28.5938	-54.9372	212.842	-31.2469	-78.3278	212.644	-41.605	-19.3498	210.93	-51.1244	-35.4622	210.948	-59.2016	-51.2517	230.27	-15.64	10.7508	233.107	-14.047	33.1343	233.191	10.5426	14.9809	
251	2.09167	203.069	27.1064	23.3423	182.883	19.5865	-1.65878	178.381	5.22723	-21.9416	180.911	-19.443	-35.9508	219.019	24.3129	-35.4754	214.337	27.8531	-59.72	212.303	26.3014	-83.2967	221.651	0.842829	-41.7555	217.891	-2.49407	-67.2597	216.235	-3.16348	-89.7808	218.623	-21.1113	-34.3047	216.452	-28.3904	-55.0873	213.009	-28.2208	-77.6371	213.214	-42.7608	-19.1615	210.573	-48.8072	-36.4601	214.457	-57.0671	-52.3075	230.632	-16.1032	8.10148	231.661	-18.7103	33.2477	232.378	8.98029	16.6187	
252	2.1	201.992	25.4187	24.2562	183.189	20.3031	-5.66271	178.88	5.34701	-24.3607	180.061	-15.4411	-33.0904	220.903	19.6477	-36.2193	216.163	25.3225	-59.4961	214.642	30.6114	-82.0494	222.096	-0.609814	-42.2635	219.893	-3.9305	-63.9526	216.477	-3.20741	-92.5396	218.4	-20.9484	-34.099	217.307	-26.8215	-55.2826	214.89	-27.4692	-77.7069	213.573	-38.1343	-21.5888	211.011	-49.369	-34.8558	213.558	-58.3241	-50.1729	230.138	-19.6488	10.1949	231.769	-20.3142	35.2274	232.985	6.12246	18.8431	
253	2.10833	202.579	24.9821	22.514	183.078	20.0399	-1.20511	179.416	5.39202	-27.8185	179.853	-15.8084	-39.3433	221.296	24.9169	-35.7134	217.504	28.4687	-57.7336	215.644	32.4701	-76.7506	222.753	2.34716	-41.8041	221.272	-1.85999	-67.6518	219.866	-0.38582	-91.8778	219.873	-22.2621	-35.5249	217.557	-23.6111	-55.1141	216.783	-24.9947	-77.614	213.135	-40.8765	-20.4613	212.522	-46.0127	-35.0411	215.847	-56.0571	-51.1585	227.787	-19.2598	8.58459	233.041	-16.7464	35.0077	233.323	5.80148	20.1262	
254	2.11667	201.362	22.484	25.8315	183.483	18.3738	-2.54901	181.501	5.86438	-24.2653	184.761	-15.9164	-35.6032	221.473	23.4802	-38.9688	217.364	26.4924	-56.3162	216.704	35.4864	-81.3167	223.459	3.37242	-41.0881	222.213	1.83332	-66.5322	220.985	0.321402	-93.0072	220.703	-19.8115	-36.1695	220.074	-21.2649	-57.8895	218.288	-23.1676	-79.7437	215.221	-41.9589	-21.295	214.534	-44.1736	-41.3125	216.031	-52.1585	-53.9902	229.272	-20.646	11.1433	232.415	-15.626	32.6859	231.892	8.66024	21.6404	
255	2.125	200.442	24.6998	27.2344	184.173	20.439	-5.84965	180.062	7.69777	-27.9429	183.581	-15.2066	-41.0477	221.93	25.9388	-34.0534	219.162	31.3192	-56.9912	219.046	36.4735	-80.8311	224.807	3.98791	-43.1876	223.475	3.06561	-65.5783	222.659	2.89623	-88.045	220.873	-17.9755	-33.8887	221.073	-21.0643	-60.8219	219.195	-20.6006	-77.9404	216.34	-40.7098	-21.779	215.185	-45.0849	-39.4163	218.452	-50.2844	-53.976	228.819	-17.816	7.63771	231.944	-16.9478	36.3893	230.777	10.8144	20.0585	
256	2.13333	202.737	24.0422	23.124	184.825	20.6148	-4.62735	183.314	8.25868	-26.5307	185.086	-10.0752	-37.3303	222.436	26.1252	-36.5752	220.629	33.1127	-54.7348	220.174	37.4731	-77.379	226.133	2.65106	-40.4327	224.986	3.53223	-65.3304	225.278	6.6084	-90.4749	222.84	-13.5042	-38.922	221.06	-21.1704	-57.8034	221.504	-19.1884	-77.6723	217.336	-39.0645	-25.7511	215.927	-41.7796	-42.6596	219.686	-49.0778	-53.2969	230.105	-14.2135	9.08707	233.241	-15.152	33.3648	233.252	7.38817	22.5717	
257	2.14167	200.653	27.2708	26.5367	185.494	21.7038	-2.77618	181.088	11.3771	-25.4301	186.474	-9.3168	-38.9293	222.579	31.7206	-36.1813	220.77	32.6085	-59.6512	220.685	38.886	-77.8411	227.372	9.09024	-42.3293	225.711	7.94298	-63.9045	226.682	7.02673	-90.1934	223.817	-12.0915	-37.4917	222.668	-17.0499	-59.6717	222.909	-15.8627	-78.1643	216.761	-36.1891	-24.9294	215.581	-40.582	-39.7867	220.383	-49.5076	-57.6686	229.814	-14.9129	6.19522	233.347	-15.9589	32.8917	231.81	9.52914	22.6871	
258	2.15	200.546	25.5948	26.9744	183.71	25.5199	-6.69386	182.603	12.3372	-26.6351	185.891	-9.41398	-41.1652	224.4	29.3158	-34.5154	221.959	34.3515	-59.1634	220.91	37.8014	-76.1193	227.342	5.66829	-41.9482	227.63	10.854	-67.3776	228.058	8.31864	-90.9603	224.774	-16.1772	-39.2769	224.797	-15.6637	-60.2271	223.553	-16.8914	-81.7766	216.837	-32.5859	-22.6765	216.002	-42.8783	-41.1784	220.468	-46.1824	-59.1749	231.949	-13.0784	8.54559	231.892	-18.2141	31.916	233.329	12.5263	21.2255	
259	2.15833	201.006	27.2575	26.0307	185.792	23.3423	-4.57534	183.989	12.2811	-25.6638	184.635	-6.51988	-39.9258	223.543	33.5754	-36.0998	220.712	37.3024	-57.0759	221.231	43.0067	-78.8112	227.266	6.19121	-45.0213	226.607	12.1006	-65.6649	228.78	6.12516	-87.3915	225.032	-11.0916	-35.4772	223.631	-15.4516	-55.9541	223.887	-13.8522	-77.9411	218.86	-36.1538	-24.991	217.414	-41.3118	-43.7565	221.552	-45.7083	-56.7685	232.145	-14.8598	6.17047	230.604	-18.1814	35.2624	231.029	14.4994	23.8378	
260	2.16667	199.15	27.9451	27.0094	183.639	24.8022	-1.64588	181.623	14.192	-26.9349	183.705	-6.89566	-43.5945	223.315	29.8468	-37.4976	221.271	33.5562	-55.9864	220.038	41.9644	-79.1947	226.786	7.26316	-39.8027	227.457	9.33112	-63.9234	228.887	8.48697	-88.0184	224.452	-11.3428	-36.7924	225.21	-13.346	-58.7924	225.355	-15.1832	-79.2723	219.23	-36.0522	-25.1815	217.807	-40.7399	-40.0753	220.675	-46.8834	-56.1608	229.322	-14.7464	10.2763	230.549	-14.9079	35.3895	232.37	12.1118	19.5412	
261	2.175	200.725	25.8106	27.1123	185.231	23.5934	-5.92941	185.824	9.78584	-28.6826	189.289	-10.1388	-39.2928	222.997	30.5652	-35.7809	220.825	38.0523	-53.9417	220.243	40.1284	-77.3016	228.131	9.35793	-42.9978	227.314	6.86048	-65.3512	229.754	8.94022	-91.1324	225.867	-13.2372	-37.8601	225.565	-16.8773	-56.1397	226.236	-15.3942	-80.4219	218.715	-32.9014	-20.7174	219.294	-41.9836	-39.4007	223.085	-45.4632	-59.8901	231.041	-13.7735	8.09045	230.664	-11.6718	34.6768	230.556	13.0515	21.5451	
